<svg width="73" height="72" viewBox="0 0 73 72" fill="none" xmlns="http://www.w3.org/2000/svg">
<circle cx="36.375" cy="36" r="29.25" stroke="#315D8B" stroke-width="5.625"/>
<path fill-rule="evenodd" clip-rule="evenodd" d="M36.5192 20.3605C35.7384 20.7219 35.5172 21.2367 35.5172 22.6926V23.7828L34.8053 24.0007C33.867 24.2877 32.9092 24.866 32.0375 25.6715C29.4725 28.0416 28.8826 31.9616 30.6362 34.9831C30.8551 35.3601 31.4139 36.0484 31.8782 36.5127C33.347 37.9815 34.7246 38.5878 37.0144 38.7732C38.1697 38.8668 38.3904 38.9181 39.0605 39.2493C39.9718 39.6997 40.5805 40.3289 41.0369 41.2922C41.3388 41.9294 41.3707 42.0926 41.3707 42.9987C41.3707 43.9048 41.3388 44.0681 41.0369 44.7052C40.5724 45.6857 39.9745 46.2964 39.0145 46.7708C38.2623 47.1426 38.161 47.1647 37.2102 47.1647C36.3001 47.1647 36.1365 47.133 35.5172 46.8367C34.0183 46.1194 33.1809 44.9185 32.9967 43.222C32.8957 42.2914 32.7485 41.9857 32.2071 41.5814C31.9905 41.4198 31.7575 41.364 31.2985 41.364C30.6379 41.364 30.294 41.5371 29.8959 42.0704C29.2749 42.9021 29.7706 45.4672 30.882 47.173C31.7445 48.4969 33.3676 49.7444 34.7966 50.1817L35.4999 50.3968L35.5349 51.6475C35.5728 53.0015 35.6529 53.2171 36.2961 53.6973C36.7045 54.0022 37.7049 54.0022 38.1133 53.6973C38.7548 53.2183 38.8366 52.9998 38.8741 51.6642L38.9088 50.4304L39.7409 50.1356C42.9252 49.0077 45.0013 45.8326 44.7616 42.4569C44.6293 40.5919 43.9118 39.0528 42.5312 37.6722C41.0624 36.2035 39.6848 35.5971 37.395 35.4117C36.2397 35.3182 36.019 35.2668 35.3489 34.9356C34.4376 34.4853 33.8289 33.8561 33.3725 32.8927C33.0702 32.2547 33.0387 32.093 33.0387 31.1807C33.0387 30.2299 33.0608 30.1286 33.4326 29.3764C33.907 28.4164 34.5177 27.8185 35.4982 27.354C36.1354 27.0522 36.2986 27.0202 37.2047 27.0202C38.1108 27.0202 38.274 27.0522 38.9112 27.354C40.3811 28.0503 41.2294 29.2743 41.4127 30.9629C41.5137 31.8935 41.6609 32.1993 42.2023 32.6035C42.6107 32.9084 43.6112 32.9084 44.0196 32.6035C44.748 32.0597 44.9166 31.4226 44.6952 30.0501C44.2426 27.2449 42.221 24.8361 39.6126 23.9943L38.9091 23.7673L38.8743 22.527C38.8368 21.1911 38.754 20.9661 38.1289 20.4993C37.7794 20.2384 36.9395 20.1659 36.5192 20.3605Z" fill="#A9C2DD" stroke="#A9C2DD" stroke-width="1.125"/>
</svg>
