<svg width="73" height="72" viewBox="0 0 73 72" fill="none" xmlns="http://www.w3.org/2000/svg">
<path d="M45.625 63V49.5C45.625 44.5294 41.5956 40.5 36.625 40.5V40.5C31.6544 40.5 27.625 44.5294 27.625 49.5V63" stroke="#A9C2DD" stroke-width="5.625"/>
<path d="M56.5138 27.2404L60.1666 21.9184C62.2304 18.9114 61.4659 14.8008 58.459 12.7369V12.7369C55.452 10.6731 51.3413 11.4376 49.2775 14.4445L45.6247 19.7666" stroke="#A9C2DD" stroke-width="5.625"/>
<path d="M9.625 33.75C9.625 32.3336 10.2919 30.9998 11.425 30.15L33.925 13.275C35.525 12.075 37.725 12.075 39.325 13.275L61.825 30.15C62.9581 30.9998 63.625 32.3336 63.625 33.75V58.5C63.625 60.9853 61.6103 63 59.125 63H14.125C11.6397 63 9.625 60.9853 9.625 58.5V33.75Z" stroke="#315D8B" stroke-width="5.625"/>
</svg>
